Coordinates
version=1
nRows=20
nColumns=38
inDegrees=no

Units are S.I. units (second, meters, Newtons, ...)
If the header above contains a line with 'inDegrees', this indicates whether rotational values are in degrees (yes) or radians (no).

endheader
time	pelvis_tilt	pelvis_list	pelvis_rotation	pelvis_tx	pelvis_ty	pelvis_tz	hip_flexion_r	hip_adduction_r	hip_rotation_r	knee_angle_r	ankle_angle_r	subtalar_angle_r	mtp_angle_r	hip_flexion_l	hip_adduction_l	hip_rotation_l	knee_angle_l	ankle_angle_l	subtalar_angle_l	mtp_angle_l	lumbar_extension	lumbar_bending	lumbar_rotation	arm_flex_r	arm_add_r	arm_rot_r	elbow_flex_r	pro_sup_r	wrist_flex_r	wrist_dev_r	arm_flex_l	arm_add_l	arm_rot_l	elbow_flex_l	pro_sup_l	wrist_flex_l	wrist_dev_l
0	0.719651	1.423	-2.43323	0.956646	1.28432	0.952349	0.265977	-0.192541	0.0332143	1.30211	-0.0867258	0	0	0.103896	0.127719	-0.227374	0.371269	0.0808963	0	0	-0.206491	-0.139683	-0.0597448	-0.209213	-0.0397258	-0.700231	0.252977	1.42759	0	0	-0.200401	-0.414576	0.61088	0.679072	0.523728	0	0
0.01	0.693015	1.42534	-2.40361	0.957715	1.2765	0.953885	0.286781	-0.184053	0.0334977	1.30607	-0.0841025	0	0	0.0831553	0.128201	-0.22186	0.353321	0.0824567	0	0	-0.208505	-0.13379	-0.0615513	-0.209727	-0.0405674	-0.704205	0.253912	1.43351	0	0	-0.195291	-0.417679	0.622947	0.681357	0.519881	0	0
0.02	0.653989	1.42711	-2.36111	0.95882	1.26847	0.955531	0.303373	-0.174865	0.0328515	1.30388	-0.0823443	0	0	0.0600854	0.127713	-0.215989	0.334588	0.0839589	0	0	-0.212372	-0.126323	-0.065023	-0.210848	-0.0415956	-0.708543	0.257677	1.43779	0	0	-0.190871	-0.418548	0.630399	0.681335	0.519681	0	0
0.03	0.60955	1.42843	-2.31208	0.960024	1.26047	0.957133	0.317334	-0.16606	0.0303216	1.29694	-0.0796775	0	0	0.0366768	0.126546	-0.209315	0.316326	0.0852122	0	0	-0.217304	-0.118181	-0.0701292	-0.212001	-0.0422636	-0.711754	0.263486	1.43761	0	0	-0.187498	-0.419609	0.634409	0.683545	0.523733	0	0
0.04	0.564838	1.42982	-2.26264	0.961189	1.25252	0.958566	0.330256	-0.157471	0.0271414	1.28611	-0.0759117	0	0	0.0143525	0.124591	-0.202937	0.299273	0.0864532	0	0	-0.221665	-0.10988	-0.0760199	-0.212918	-0.0429007	-0.713602	0.270211	1.43488	0	0	-0.185028	-0.420427	0.636015	0.685972	0.529261	0	0
0.05	0.523522	1.43122	-2.21593	0.962414	1.24462	0.959787	0.34263	-0.15009	0.0229249	1.27195	-0.0708726	0	0	-0.0063367	0.122483	-0.195957	0.28367	0.0876531	0	0	-0.225436	-0.10173	-0.0830926	-0.21444	-0.0434274	-0.708762	0.27973	1.43495	0	0	-0.183075	-0.420382	0.634276	0.686932	0.531729	0	0
0.06	0.486624	1.43245	-2.17358	0.963633	1.23674	0.960795	0.354533	-0.143973	0.018279	1.25484	-0.0649896	0	0	-0.0257881	0.120603	-0.188348	0.269134	0.0888433	0	0	-0.228681	-0.0941821	-0.0905051	-0.215824	-0.0441091	-0.70074	0.289509	1.43477	0	0	-0.181449	-0.419922	0.630888	0.687551	0.534987	0	0
0.07	0.453516	1.43339	-2.13532	0.964794	1.2289	0.961615	0.365638	-0.138731	0.0137039	1.23472	-0.0586382	0	0	-0.0446037	0.119203	-0.18016	0.254806	0.0897446	0	0	-0.231706	-0.0874432	-0.0979411	-0.215796	-0.0451837	-0.694235	0.296402	1.42991	0	0	-0.180931	-0.419395	0.623977	0.689344	0.541393	0	0
0.08	0.424682	1.43431	-2.1009	0.965964	1.22122	0.962275	0.376053	-0.134511	0.00852311	1.21166	-0.0523876	0	0	-0.0621972	0.118087	-0.171378	0.241483	0.0906467	0	0	-0.234464	-0.0812592	-0.106285	-0.214673	-0.0464881	-0.686985	0.302118	1.42338	0	0	-0.180212	-0.418607	0.616518	0.689851	0.54562	0	0
0.09	0.400551	1.43542	-2.07106	0.967073	1.2136	0.962737	0.385999	-0.131118	0.0031311	1.18568	-0.0452661	0	0	-0.0782892	0.11708	-0.163412	0.229559	0.0916468	0	0	-0.236662	-0.0757302	-0.114959	-0.212529	-0.0478121	-0.679043	0.3063	1.41696	0	0	-0.17901	-0.418003	0.610387	0.68965	0.547838	0	0
0.1	0.380068	1.43647	-2.04535	0.968072	1.20598	0.963018	0.395085	-0.128339	-0.00207922	1.15699	-0.0374725	0	0	-0.0938698	0.116487	-0.155589	0.217901	0.0921217	0	0	-0.23855	-0.0709201	-0.122908	-0.209654	-0.0491099	-0.671717	0.309001	1.41128	0	0	-0.177302	-0.417453	0.605196	0.688946	0.54984	0	0
0.11	0.362997	1.43759	-2.02337	0.969006	1.19837	0.963108	0.403307	-0.126233	-0.00753223	1.12572	-0.0292358	0	0	-0.108848	0.11618	-0.147943	0.206705	0.0923533	0	0	-0.239979	-0.0666731	-0.129733	-0.206715	-0.0503712	-0.665103	0.310931	1.40612	0	0	-0.174735	-0.416835	0.601157	0.687882	0.55378	0	0
0.12	0.347361	1.43885	-2.00309	0.969848	1.19076	0.96303	0.410483	-0.124475	-0.0135402	1.09188	-0.0214973	0	0	-0.123182	0.115858	-0.140343	0.196014	0.0925316	0	0	-0.24094	-0.062715	-0.135869	-0.203436	-0.0516863	-0.658548	0.311695	1.40169	0	0	-0.171446	-0.416123	0.598654	0.685764	0.558364	0	0
0.13	0.330875	1.44039	-1.98251	0.970545	1.18308	0.962792	0.416711	-0.122291	-0.0196876	1.05551	-0.0149782	0	0	-0.136661	0.115174	-0.133036	0.186231	0.0929551	0	0	-0.241426	-0.0586915	-0.141002	-0.199832	-0.0531048	-0.651901	0.311407	1.39844	0	0	-0.167296	-0.414935	0.597225	0.681638	0.561179	0	0
0.14	0.312516	1.44219	-1.96058	0.971061	1.17541	0.962429	0.42195	-0.119321	-0.025762	1.01662	-0.00960656	0	0	-0.149207	0.114019	-0.126316	0.177688	0.0939801	0	0	-0.241548	-0.0544296	-0.144853	-0.196106	-0.0544161	-0.646825	0.310591	1.39568	0	0	-0.161755	-0.413211	0.597947	0.675354	0.562845	0	0
0.15	0.291732	1.44367	-1.93689	0.971567	1.16775	0.961999	0.425508	-0.115769	-0.0320411	0.975211	-0.00518533	0	0	-0.161263	0.112476	-0.120392	0.170663	0.0958916	0	0	-0.242058	-0.0502171	-0.147405	-0.192501	-0.0554923	-0.641654	0.310065	1.3925	0	0	-0.156034	-0.412107	0.599637	0.670975	0.566105	0	0
0.16	0.269037	1.44501	-1.91197	0.971822	1.16003	0.961477	0.427677	-0.111606	-0.0383448	0.93164	-0.00168474	0	0	-0.172812	0.110604	-0.115281	0.164952	0.0989741	0	0	-0.242737	-0.0459767	-0.148897	-0.188952	-0.056359	-0.636591	0.30983	1.38811	0	0	-0.150182	-0.410941	0.601014	0.666846	0.568999	0	0
0.17	0.241708	1.44599	-1.88302	0.971997	1.15225	0.960939	0.428029	-0.106409	-0.045098	0.885856	0.000577268	0	0	-0.184201	0.107797	-0.111473	0.161381	0.104123	0	0	-0.243825	-0.0414564	-0.149509	-0.185571	-0.0568449	-0.63175	0.310153	1.38195	0	0	-0.144299	-0.409642	0.601895	0.662595	0.570736	0	0
0.18	0.210564	1.44678	-1.85078	0.971964	1.14437	0.960344	0.426768	-0.100384	-0.0522424	0.837846	0.00244759	0	0	-0.195512	0.104503	-0.108037	0.158456	0.109689	0	0	-0.245017	-0.0366222	-0.149523	-0.182277	-0.0570796	-0.626038	0.310755	1.37425	0	0	-0.138713	-0.408233	0.602447	0.659002	0.572819	0	0
0.19	0.176128	1.44739	-1.81533	0.971846	1.13648	0.959714	0.424016	-0.0938779	-0.0609302	0.788219	0.00450052	0	0	-0.206804	0.10069	-0.104236	0.1563	0.11549	0	0	-0.246347	-0.0314007	-0.149314	-0.17934	-0.0570627	-0.619348	0.312132	1.36423	0	0	-0.133127	-0.406787	0.603676	0.655536	0.57486	0	0
